<svg viewBox="0 0 15000 14000" xmlns="http://www.w3.org/2000/svg">
  <g id="zone1">
    <path fill="transparent" stroke="black" stroke-width="20px" d="M 6250 0 v 1575 A 1250 1250 0 0 0 8750 1575 v -1575 Z"/>
  </g>
  <g id="zone2">
    <path fill="transparent" stroke="black" stroke-width="20px" d="M 3275 0 v 1575 A 4225 4225 0 0 0 4785 4808 L 6696 2526 A 1250 1250 0 0 1 6250 1575 v -1575 Z"/>
  </g>
  <g id="zone3">
    <path fill="transparent" stroke="black" stroke-width="20px" d="M 6696 2526 L 4785 4808 A 4225 4225 0 0 0 10216 4808 L 8304 2526 A 1250 1250 0 0 1 6696 2526"/>
  </g>
  <g id="zone4">
    <path fill="transparent" stroke="black" stroke-width="20px" d="M 8750 0 v 1575 A 1250 1250 0 0 1 8304 2526 L 10216 4808 A 4225 4225 0 0 0 11725 1575 v -1575 Z"/>
  </g>
  <g id="zone5"></g>
  <g id="zone6">
    <path fill="transparent" stroke="black" stroke-width="20px" d="M 900 0 V 2990 A 6750 6750 0 0 0 2040 5543 L 4082 4059 A 4225 4225 0 0 1 3275 1575 V 0 Z"/>
  </g>
  <g id="zone7">
    <path fill="transparent" stroke="black" stroke-width="20px" d="M 4082 4059 L 2040 5543 A 6750 6750 0 0 0 5416 7995.5 L 6196 5594 A 4225 4225 0 0 1 4082 4059"/>
  </g>
  <g id="zone8">
    <path fill="transparent" stroke="black" stroke-width="20px" d="M 6196 5594 L 5416 7995.5 A 6750 6750 0 0 0 9587 7995.5 L 8806 5594 A 4225 4225 0 0 1 6196 5594"/>
  </g>
  <g id="zone9">
    <path fill="transparent" stroke="black" stroke-width="20px" d="M 8806 5594 L 9587 7995.5 A 6750 6750 0 0 0 12962 5543 L 10918.5 4059 A 4225 4225 0 0 1 8806 5594"/>
  </g>
  <g id="zone10">
    <path fill="transparent" stroke="black" stroke-width="20px" d="M 11725 0 V 1575 A 4225 4225 0 0 1 10918.5 4059 L 12962 5543 A 6750 6750 0 0 0 14100 2990 V 0 Z"/>
  </g>
  <g id="zone11"></g>
  <g id="zone12"></g>
  <g id="zone13"></g>
  <g id="zone14"></g>
  <path fill="transparent" stroke="black" stroke-width="20px" d="M 900 0 V 2990 A 6750 6750 0 0 0 7500 8325 A 6750 6750 0 0 0 14100 2990 V 0"/>
  <g>
    <path fill="transparent" stroke="black" stroke-width="20px" d="M 5050 0 V 5800 h 4900 v -5800"/>
    <path fill="transparent" stroke="black" stroke-width="20px" d="M 5700 5800 A 1800 1800 0 0 0 9300 5800"/>
  </g>
</svg>