<svg viewBox="0 0 15000 12000" xmlns="http://www.w3.org/2000/svg" fill="transparent" stroke="currentColor" stroke-width="10px">
  <g fill="transparent" stroke="white" stroke-width="100px">
    <path d="M 900 0 V 2990 A 6750 6750 0 0 0 7500 8325 A 6750 6750 0 0 0 14100 2990 V 0"/>
    <path d="M 5050 0 V 5800 h 4900 v -5800" fill="#d34619" />
    <path d="M 5700 5800 A 1800 1800 0 0 0 9300 5800"/>
    <path d="M 6250 1200 v 375 A 1250 1250 0 0 0 8750 1575 v -375"/>
  </g>
  <g data-type="zone" data-zone="1" transform="translate(6250, 0)">
    <path d="M 0 0 v 1575 A 1250 1250 0 0 0 2500 1575 v -1575 Z"/>
    <text>TEST</text>
  </g>
  <g data-type="zone" data-zone="2">
    <path d="M 3275 0 v 1575 A 4225 4225 0 0 0 4785 4808 L 6696 2526 A 1250 1250 0 0 1 6250 1575 v -1575 Z"/>
  </g>
  <g data-type="zone" data-zone="3">
    <path d="M 6696 2526 L 4785 4808 A 4225 4225 0 0 0 10216 4808 L 8304 2526 A 1250 1250 0 0 1 6696 2526"/>
  </g>
  <g data-type="zone" data-zone="4">
    <path d="M 8750 0 v 1575 A 1250 1250 0 0 1 8304 2526 L 10216 4808 A 4225 4225 0 0 0 11725 1575 v -1575 Z"/>
  </g>
  <g data-type="zone" data-zone="6">
    <path d="M 900 0 V 2990 A 6750 6750 0 0 0 2040 5543 L 4082 4059 A 4225 4225 0 0 1 3275 1575 V 0 Z"/>
  </g>
  <g data-type="zone" data-zone="7">
    <path d="M 4082 4059 L 2040 5543 A 6750 6750 0 0 0 5416 7995.5 L 6196 5594 A 4225 4225 0 0 1 4082 4059"/>
  </g>
  <g data-type="zone" data-zone="8">
    <path d="M 6196 5594 L 5416 7995.5 A 6750 6750 0 0 0 9587 7995.5 L 8806 5594 A 4225 4225 0 0 1 6196 5594"/>
  </g>
  <g data-type="zone" data-zone="9">
    <path d="M 8806 5594 L 9587 7995.5 A 6750 6750 0 0 0 12962 5543 L 10918.5 4059 A 4225 4225 0 0 1 8806 5594"/>
  </g>
  <g data-type="zone" data-zone="10">
    <path d="M 11725 0 V 1575 A 4225 4225 0 0 1 10918.5 4059 L 12962 5543 A 6750 6750 0 0 0 14100 2990 V 0 Z"/>
  </g>
  <g data-type="zone" data-zone="11">
    <path d="M 0 0 V 7024 L 2040 5543 A 6750 6750 0 0 1 900 2990 V 0 Z"/>
  </g>
  <g data-type="zone" data-zone="12">
    <path d="M 2040 5543 L 0 7024 A 9270.5 9270.5 0 0 0 4637 10392 L 5416 7995.5 A 6750 6750 0 0 1 2040 5543"/>
  </g>
  <g data-type="zone" data-zone="13">
    <path d="M 5416 7995.5 L 4637 10392 A 9270.5 9270.5 0 0 0 10366 10392 L 9587 7995.5 A 6750 6750 0 0 1 5416 7995.5"/>
  </g>
  <g data-type="zone" data-zone="14">
    <path d="M 9587 7995.5 L 10366 10392 A 9270.5 9270.5 0 0 0 15000 7024 L 12962 5543 A 6750 6750 0 0 1 9587 7995.5"/>
  </g>
  <g data-type="zone" data-zone="15">
    <path d="M 14100 0 V 2990 A 6750 6750 0 0 1 12962 5543 L 15000 7024 V 0 Z"/>
  </g>
  <g data-type="zone" data-zone="5" fill="white" stroke="white">
    <rect x="380" y="10025" width="1500" height="1500" />
    <line x1="1130" x2="5200" y1="10025" y2="5800" />
    <path stroke-width="150px" d="M 5200 5800 h 4600"/>
    <line x1="13870" x2="9800" y1="10025" y2="5800" />
    <rect x="13120" y="10025" width="1500" height="1500" />
  </g>
</svg>